#N canvas 252 23 682 643 10;
#X floatatom 161 -11 3 0 0 0 - - -;
#X obj 116 -63 notein;
#X obj 116 -37 stripnote;
#X floatatom 116 -12 3 0 0 0 - - -;
#X text 116 -86 MIDI IN;
#X floatatom 234 -14 3 0 0 0 - - -;
#X obj 204 -40 ctlin;
#X obj 204 7 bng 20 250 50 0 empty empty empty 17 7 0 10 -262144 -1
-1;
#X obj 263 98 slider 127 0 15;
#X obj -87 -97 slider 127 0 15;
#X text 169 460 output left and right channels;
#X obj -4 277 osc~ 440;
#X text 56 277 "osc~ 440";
#X obj 96 396 *~;
#X text 123 395 "*~";
#X obj 85 460 dac~;
#X text 119 460 "dac~";
#X obj -85 182 *~ 20;
#X obj -85 232 +~ 440;
#X obj -47 208 nbx 5 14 -1e+37 1e+37 0 0 empty empty empty 0 -8 0 10
-262144 -1 -1 300 256;
#X text 1 66 center frequency;
#X obj -58 161 nbx 5 14 -1e+37 1e+37 0 0 empty empty empty 0 -8 0 10
-262144 -1 -1 26 256;
#X text 5 96 freq mod rate;
#X text -1 161 freq mod amp;
#X obj -85 130 osc~ 5;
#X text 253 287 "/ 127";
#X obj 213 288 / 127;
#X obj 239 340 nbx 5 14 -1e+37 1e+37 0 0 empty empty empty 0 -8 0 10
-262144 -1 -1 0.322835 256;
#X text 297 339 "nbx";
#X obj -70 103 nbx 5 14 -1e+37 1e+37 0 0 empty empty empty 0 -8 0 10
-262144 -1 -1 12.5 256;
#X obj -51 72 / 8;
#X obj 113 19 bng 20 250 50 0 empty empty empty 17 7 0 10 -262144 -1
-1;
#X floatatom 266 14 3 0 0 0 - - -;
#X floatatom 204 -15 3 0 0 0 - - -;
#X floatatom -86 -120 3 0 0 0 - - -;
#X obj -200 37 slider 127 0 15;
#X floatatom -199 14 3 0 0 0 - - -;
#X floatatom -150 92 3 0 0 0 - - -;
#X obj -87 -144 ctlin 35;
#X obj -149 68 ctlin 34;
#X obj 270 -25 ctlin 37;
#X obj -200 -10 ctlin 33;
#X obj 107 120 slider 127 0 15;
#X floatatom 108 97 3 0 0 0 - - -;
#X obj 107 73 ctlin 36;
#X obj 147 269 / 10;
#X obj -72 321 * 4;
#X obj -151 115 slider 127 0 15;
#X obj -152 274 * 4;
#X connect 1 0 2 0;
#X connect 1 1 2 1;
#X connect 2 0 3 0;
#X connect 2 1 0 0;
#X connect 3 0 30 0;
#X connect 3 0 31 0;
#X connect 6 0 33 0;
#X connect 6 1 5 0;
#X connect 8 0 26 0;
#X connect 9 0 30 0;
#X connect 11 0 13 0;
#X connect 13 0 15 0;
#X connect 13 0 15 1;
#X connect 17 0 18 0;
#X connect 18 0 11 0;
#X connect 19 0 18 1;
#X connect 21 0 17 1;
#X connect 24 0 17 0;
#X connect 26 0 27 0;
#X connect 26 0 13 1;
#X connect 29 0 24 0;
#X connect 30 0 29 0;
#X connect 32 0 8 0;
#X connect 33 0 7 0;
#X connect 34 0 9 0;
#X connect 35 0 17 1;
#X connect 36 0 35 0;
#X connect 37 0 47 0;
#X connect 38 0 34 0;
#X connect 39 0 37 0;
#X connect 40 0 32 0;
#X connect 41 0 36 0;
#X connect 42 0 45 0;
#X connect 43 0 42 0;
#X connect 44 0 43 0;
#X connect 45 0 24 1;
#X connect 47 0 48 0;
#X connect 48 0 19 0;
